<mxfile host="app.diagrams.net" modified="2024-04-09T12:05:02.484Z" agent="Mozilla/5.0 (Windows NT 10.0; Win64; x64) AppleWebKit/537.36 (KHTML, like Gecko) Chrome/123.0.0.0 Safari/537.36" etag="TnibEVHzhSd837_qETO0" version="24.2.3" type="device">
  <diagram name="Page-1" id="BU5r9CmQFLcy88pMZv3V">
    <mxGraphModel dx="637" dy="323" grid="1" gridSize="10" guides="1" tooltips="1" connect="1" arrows="1" fold="1" page="1" pageScale="1" pageWidth="850" pageHeight="1100" math="0" shadow="0">
      <root>
        <mxCell id="0" />
        <mxCell id="1" parent="0" />
        <mxCell id="ptR34I22DVHRgY58OOjF-41" style="edgeStyle=orthogonalEdgeStyle;rounded=0;orthogonalLoop=1;jettySize=auto;html=1;exitX=1;exitY=0.5;exitDx=0;exitDy=0;entryX=0;entryY=0.5;entryDx=0;entryDy=0;entryPerimeter=0;" edge="1" parent="1" source="ptR34I22DVHRgY58OOjF-10" target="ptR34I22DVHRgY58OOjF-13">
          <mxGeometry relative="1" as="geometry" />
        </mxCell>
        <mxCell id="ptR34I22DVHRgY58OOjF-1" value="json" style="swimlane;fontStyle=0;childLayout=stackLayout;horizontal=1;startSize=26;fillColor=none;horizontalStack=0;resizeParent=1;resizeParentMax=0;resizeLast=0;collapsible=1;marginBottom=0;whiteSpace=wrap;html=1;" vertex="1" parent="1">
          <mxGeometry x="40" y="40" width="140" height="156" as="geometry" />
        </mxCell>
        <mxCell id="ptR34I22DVHRgY58OOjF-2" value="+ id: int&lt;div&gt;&lt;br&gt;&lt;/div&gt;&lt;div&gt;&lt;br&gt;&lt;/div&gt;" style="text;strokeColor=none;fillColor=none;align=left;verticalAlign=top;spacingLeft=4;spacingRight=4;overflow=hidden;rotatable=0;points=[[0,0.5],[1,0.5]];portConstraint=eastwest;whiteSpace=wrap;html=1;" vertex="1" parent="ptR34I22DVHRgY58OOjF-1">
          <mxGeometry y="26" width="140" height="26" as="geometry" />
        </mxCell>
        <mxCell id="ptR34I22DVHRgY58OOjF-3" value="+ name: string" style="text;strokeColor=none;fillColor=none;align=left;verticalAlign=top;spacingLeft=4;spacingRight=4;overflow=hidden;rotatable=0;points=[[0,0.5],[1,0.5]];portConstraint=eastwest;whiteSpace=wrap;html=1;" vertex="1" parent="ptR34I22DVHRgY58OOjF-1">
          <mxGeometry y="52" width="140" height="26" as="geometry" />
        </mxCell>
        <mxCell id="ptR34I22DVHRgY58OOjF-4" value="+ surname: string" style="text;strokeColor=none;fillColor=none;align=left;verticalAlign=top;spacingLeft=4;spacingRight=4;overflow=hidden;rotatable=0;points=[[0,0.5],[1,0.5]];portConstraint=eastwest;whiteSpace=wrap;html=1;" vertex="1" parent="ptR34I22DVHRgY58OOjF-1">
          <mxGeometry y="78" width="140" height="26" as="geometry" />
        </mxCell>
        <mxCell id="ptR34I22DVHRgY58OOjF-5" value="+ email: string" style="text;strokeColor=none;fillColor=none;align=left;verticalAlign=top;spacingLeft=4;spacingRight=4;overflow=hidden;rotatable=0;points=[[0,0.5],[1,0.5]];portConstraint=eastwest;whiteSpace=wrap;html=1;" vertex="1" parent="ptR34I22DVHRgY58OOjF-1">
          <mxGeometry y="104" width="140" height="26" as="geometry" />
        </mxCell>
        <mxCell id="ptR34I22DVHRgY58OOjF-6" value="+ phone: string" style="text;strokeColor=none;fillColor=none;align=left;verticalAlign=top;spacingLeft=4;spacingRight=4;overflow=hidden;rotatable=0;points=[[0,0.5],[1,0.5]];portConstraint=eastwest;whiteSpace=wrap;html=1;" vertex="1" parent="ptR34I22DVHRgY58OOjF-1">
          <mxGeometry y="130" width="140" height="26" as="geometry" />
        </mxCell>
        <mxCell id="ptR34I22DVHRgY58OOjF-24" style="edgeStyle=orthogonalEdgeStyle;rounded=0;orthogonalLoop=1;jettySize=auto;html=1;exitX=1;exitY=0.5;exitDx=0;exitDy=0;entryX=0;entryY=0.5;entryDx=0;entryDy=0;" edge="1" parent="1" source="ptR34I22DVHRgY58OOjF-9" target="ptR34I22DVHRgY58OOjF-10">
          <mxGeometry relative="1" as="geometry" />
        </mxCell>
        <mxCell id="ptR34I22DVHRgY58OOjF-9" value="client" style="shape=parallelogram;html=1;strokeWidth=2;perimeter=parallelogramPerimeter;whiteSpace=wrap;rounded=1;arcSize=12;size=0.23;" vertex="1" parent="1">
          <mxGeometry x="40" y="260" width="100" height="60" as="geometry" />
        </mxCell>
        <mxCell id="ptR34I22DVHRgY58OOjF-26" style="edgeStyle=orthogonalEdgeStyle;rounded=0;orthogonalLoop=1;jettySize=auto;html=1;entryX=1;entryY=0.5;entryDx=0;entryDy=0;" edge="1" parent="1" source="ptR34I22DVHRgY58OOjF-10" target="ptR34I22DVHRgY58OOjF-9">
          <mxGeometry relative="1" as="geometry" />
        </mxCell>
        <mxCell id="ptR34I22DVHRgY58OOjF-27" value="json" style="edgeLabel;html=1;align=center;verticalAlign=middle;resizable=0;points=[];" vertex="1" connectable="0" parent="ptR34I22DVHRgY58OOjF-26">
          <mxGeometry x="0.019" relative="1" as="geometry">
            <mxPoint as="offset" />
          </mxGeometry>
        </mxCell>
        <mxCell id="ptR34I22DVHRgY58OOjF-10" value="service" style="rounded=1;whiteSpace=wrap;html=1;absoluteArcSize=1;arcSize=14;strokeWidth=2;" vertex="1" parent="1">
          <mxGeometry x="230" y="240" width="100" height="100" as="geometry" />
        </mxCell>
        <mxCell id="ptR34I22DVHRgY58OOjF-13" value="db" style="strokeWidth=2;html=1;shape=mxgraph.flowchart.database;whiteSpace=wrap;" vertex="1" parent="1">
          <mxGeometry x="420" y="260" width="60" height="60" as="geometry" />
        </mxCell>
        <mxCell id="ptR34I22DVHRgY58OOjF-33" style="edgeStyle=orthogonalEdgeStyle;rounded=0;orthogonalLoop=1;jettySize=auto;html=1;entryX=1;entryY=0.5;entryDx=0;entryDy=0;exitX=0;exitY=0.5;exitDx=0;exitDy=0;exitPerimeter=0;" edge="1" parent="1" source="ptR34I22DVHRgY58OOjF-13">
          <mxGeometry relative="1" as="geometry">
            <mxPoint x="401" y="289.71" as="sourcePoint" />
            <mxPoint x="330" y="289.71" as="targetPoint" />
          </mxGeometry>
        </mxCell>
        <mxCell id="ptR34I22DVHRgY58OOjF-34" value="record" style="edgeLabel;html=1;align=center;verticalAlign=middle;resizable=0;points=[];" vertex="1" connectable="0" parent="ptR34I22DVHRgY58OOjF-33">
          <mxGeometry x="0.019" relative="1" as="geometry">
            <mxPoint as="offset" />
          </mxGeometry>
        </mxCell>
        <mxCell id="ptR34I22DVHRgY58OOjF-43" value="Add/Edit" style="text;html=1;align=center;verticalAlign=middle;resizable=0;points=[];autosize=1;strokeColor=none;fillColor=none;" vertex="1" parent="1">
          <mxGeometry x="40" y="230" width="70" height="30" as="geometry" />
        </mxCell>
        <mxCell id="ptR34I22DVHRgY58OOjF-54" style="edgeStyle=orthogonalEdgeStyle;rounded=0;orthogonalLoop=1;jettySize=auto;html=1;exitX=1;exitY=0.5;exitDx=0;exitDy=0;entryX=0;entryY=0.5;entryDx=0;entryDy=0;entryPerimeter=0;" edge="1" parent="1" source="ptR34I22DVHRgY58OOjF-59" target="ptR34I22DVHRgY58OOjF-60">
          <mxGeometry relative="1" as="geometry" />
        </mxCell>
        <mxCell id="ptR34I22DVHRgY58OOjF-65" value="id" style="edgeLabel;html=1;align=center;verticalAlign=middle;resizable=0;points=[];" vertex="1" connectable="0" parent="ptR34I22DVHRgY58OOjF-54">
          <mxGeometry x="-0.0429" y="-1" relative="1" as="geometry">
            <mxPoint y="-1" as="offset" />
          </mxGeometry>
        </mxCell>
        <mxCell id="ptR34I22DVHRgY58OOjF-55" style="edgeStyle=orthogonalEdgeStyle;rounded=0;orthogonalLoop=1;jettySize=auto;html=1;exitX=1;exitY=0.5;exitDx=0;exitDy=0;entryX=0;entryY=0.5;entryDx=0;entryDy=0;" edge="1" parent="1" source="ptR34I22DVHRgY58OOjF-56" target="ptR34I22DVHRgY58OOjF-59">
          <mxGeometry relative="1" as="geometry" />
        </mxCell>
        <mxCell id="ptR34I22DVHRgY58OOjF-64" value="id" style="edgeLabel;html=1;align=center;verticalAlign=middle;resizable=0;points=[];" vertex="1" connectable="0" parent="ptR34I22DVHRgY58OOjF-55">
          <mxGeometry x="0.029" y="-1" relative="1" as="geometry">
            <mxPoint x="-5" y="-1" as="offset" />
          </mxGeometry>
        </mxCell>
        <mxCell id="ptR34I22DVHRgY58OOjF-56" value="client" style="shape=parallelogram;html=1;strokeWidth=2;perimeter=parallelogramPerimeter;whiteSpace=wrap;rounded=1;arcSize=12;size=0.23;" vertex="1" parent="1">
          <mxGeometry x="40" y="380" width="100" height="60" as="geometry" />
        </mxCell>
        <mxCell id="ptR34I22DVHRgY58OOjF-59" value="service" style="rounded=1;whiteSpace=wrap;html=1;absoluteArcSize=1;arcSize=14;strokeWidth=2;" vertex="1" parent="1">
          <mxGeometry x="230" y="360" width="100" height="100" as="geometry" />
        </mxCell>
        <mxCell id="ptR34I22DVHRgY58OOjF-60" value="db" style="strokeWidth=2;html=1;shape=mxgraph.flowchart.database;whiteSpace=wrap;" vertex="1" parent="1">
          <mxGeometry x="420" y="380" width="60" height="60" as="geometry" />
        </mxCell>
        <mxCell id="ptR34I22DVHRgY58OOjF-63" value="Remove" style="text;html=1;align=center;verticalAlign=middle;resizable=0;points=[];autosize=1;strokeColor=none;fillColor=none;" vertex="1" parent="1">
          <mxGeometry x="40" y="350" width="70" height="30" as="geometry" />
        </mxCell>
        <mxCell id="ptR34I22DVHRgY58OOjF-77" value="client" style="shape=parallelogram;html=1;strokeWidth=2;perimeter=parallelogramPerimeter;whiteSpace=wrap;rounded=1;arcSize=12;size=0.23;" vertex="1" parent="1">
          <mxGeometry x="40" y="500" width="100" height="60" as="geometry" />
        </mxCell>
        <mxCell id="ptR34I22DVHRgY58OOjF-78" value="service" style="rounded=1;whiteSpace=wrap;html=1;absoluteArcSize=1;arcSize=14;strokeWidth=2;" vertex="1" parent="1">
          <mxGeometry x="230" y="480" width="100" height="100" as="geometry" />
        </mxCell>
        <mxCell id="ptR34I22DVHRgY58OOjF-92" style="edgeStyle=orthogonalEdgeStyle;rounded=0;orthogonalLoop=1;jettySize=auto;html=1;exitX=-0.036;exitY=0.721;exitDx=0;exitDy=0;exitPerimeter=0;entryX=1.016;entryY=0.639;entryDx=0;entryDy=0;entryPerimeter=0;" edge="1" parent="1" source="ptR34I22DVHRgY58OOjF-79" target="ptR34I22DVHRgY58OOjF-78">
          <mxGeometry relative="1" as="geometry" />
        </mxCell>
        <mxCell id="ptR34I22DVHRgY58OOjF-93" value="record []" style="edgeLabel;html=1;align=center;verticalAlign=middle;resizable=0;points=[];" vertex="1" connectable="0" parent="ptR34I22DVHRgY58OOjF-92">
          <mxGeometry x="-0.211" y="-1" relative="1" as="geometry">
            <mxPoint x="-4" as="offset" />
          </mxGeometry>
        </mxCell>
        <mxCell id="ptR34I22DVHRgY58OOjF-79" value="db" style="strokeWidth=2;html=1;shape=mxgraph.flowchart.database;whiteSpace=wrap;" vertex="1" parent="1">
          <mxGeometry x="420" y="500" width="60" height="60" as="geometry" />
        </mxCell>
        <mxCell id="ptR34I22DVHRgY58OOjF-80" value="Search" style="text;html=1;align=center;verticalAlign=middle;resizable=0;points=[];autosize=1;strokeColor=none;fillColor=none;" vertex="1" parent="1">
          <mxGeometry x="45" y="470" width="60" height="30" as="geometry" />
        </mxCell>
        <mxCell id="ptR34I22DVHRgY58OOjF-81" style="edgeStyle=orthogonalEdgeStyle;rounded=0;orthogonalLoop=1;jettySize=auto;html=1;exitX=1;exitY=0.25;exitDx=0;exitDy=0;entryX=-0.021;entryY=0.376;entryDx=0;entryDy=0;entryPerimeter=0;" edge="1" parent="1" source="ptR34I22DVHRgY58OOjF-77" target="ptR34I22DVHRgY58OOjF-78">
          <mxGeometry relative="1" as="geometry" />
        </mxCell>
        <mxCell id="ptR34I22DVHRgY58OOjF-83" value="search string" style="edgeLabel;html=1;align=center;verticalAlign=middle;resizable=0;points=[];" vertex="1" connectable="0" parent="ptR34I22DVHRgY58OOjF-81">
          <mxGeometry x="-0.1295" y="-1" relative="1" as="geometry">
            <mxPoint x="5" as="offset" />
          </mxGeometry>
        </mxCell>
        <mxCell id="ptR34I22DVHRgY58OOjF-82" style="edgeStyle=orthogonalEdgeStyle;rounded=0;orthogonalLoop=1;jettySize=auto;html=1;entryX=1;entryY=1;entryDx=0;entryDy=0;exitX=-0.001;exitY=0.684;exitDx=0;exitDy=0;exitPerimeter=0;" edge="1" parent="1" source="ptR34I22DVHRgY58OOjF-78" target="ptR34I22DVHRgY58OOjF-77">
          <mxGeometry relative="1" as="geometry">
            <mxPoint x="230" y="550" as="sourcePoint" />
          </mxGeometry>
        </mxCell>
        <mxCell id="ptR34I22DVHRgY58OOjF-87" value="json []" style="edgeLabel;html=1;align=center;verticalAlign=middle;resizable=0;points=[];" vertex="1" connectable="0" parent="ptR34I22DVHRgY58OOjF-82">
          <mxGeometry x="-0.2649" y="-1" relative="1" as="geometry">
            <mxPoint x="-10" as="offset" />
          </mxGeometry>
        </mxCell>
        <mxCell id="ptR34I22DVHRgY58OOjF-89" style="edgeStyle=orthogonalEdgeStyle;rounded=0;orthogonalLoop=1;jettySize=auto;html=1;exitX=1.033;exitY=0.393;exitDx=0;exitDy=0;entryX=0.007;entryY=0.331;entryDx=0;entryDy=0;entryPerimeter=0;exitPerimeter=0;" edge="1" parent="1" source="ptR34I22DVHRgY58OOjF-78" target="ptR34I22DVHRgY58OOjF-79">
          <mxGeometry relative="1" as="geometry" />
        </mxCell>
        <mxCell id="ptR34I22DVHRgY58OOjF-90" value="search string" style="edgeLabel;html=1;align=center;verticalAlign=middle;resizable=0;points=[];" vertex="1" connectable="0" parent="ptR34I22DVHRgY58OOjF-89">
          <mxGeometry x="-0.0901" relative="1" as="geometry">
            <mxPoint as="offset" />
          </mxGeometry>
        </mxCell>
        <mxCell id="ptR34I22DVHRgY58OOjF-94" value="record" style="swimlane;fontStyle=0;childLayout=stackLayout;horizontal=1;startSize=26;fillColor=none;horizontalStack=0;resizeParent=1;resizeParentMax=0;resizeLast=0;collapsible=1;marginBottom=0;whiteSpace=wrap;html=1;" vertex="1" parent="1">
          <mxGeometry x="240" y="40" width="140" height="156" as="geometry" />
        </mxCell>
        <mxCell id="ptR34I22DVHRgY58OOjF-95" value="+ id: int&lt;div&gt;&lt;br&gt;&lt;/div&gt;&lt;div&gt;&lt;br&gt;&lt;/div&gt;" style="text;strokeColor=none;fillColor=none;align=left;verticalAlign=top;spacingLeft=4;spacingRight=4;overflow=hidden;rotatable=0;points=[[0,0.5],[1,0.5]];portConstraint=eastwest;whiteSpace=wrap;html=1;" vertex="1" parent="ptR34I22DVHRgY58OOjF-94">
          <mxGeometry y="26" width="140" height="26" as="geometry" />
        </mxCell>
        <mxCell id="ptR34I22DVHRgY58OOjF-96" value="+ name: string" style="text;strokeColor=none;fillColor=none;align=left;verticalAlign=top;spacingLeft=4;spacingRight=4;overflow=hidden;rotatable=0;points=[[0,0.5],[1,0.5]];portConstraint=eastwest;whiteSpace=wrap;html=1;" vertex="1" parent="ptR34I22DVHRgY58OOjF-94">
          <mxGeometry y="52" width="140" height="26" as="geometry" />
        </mxCell>
        <mxCell id="ptR34I22DVHRgY58OOjF-97" value="+ surname: string" style="text;strokeColor=none;fillColor=none;align=left;verticalAlign=top;spacingLeft=4;spacingRight=4;overflow=hidden;rotatable=0;points=[[0,0.5],[1,0.5]];portConstraint=eastwest;whiteSpace=wrap;html=1;" vertex="1" parent="ptR34I22DVHRgY58OOjF-94">
          <mxGeometry y="78" width="140" height="26" as="geometry" />
        </mxCell>
        <mxCell id="ptR34I22DVHRgY58OOjF-98" value="+ email: string" style="text;strokeColor=none;fillColor=none;align=left;verticalAlign=top;spacingLeft=4;spacingRight=4;overflow=hidden;rotatable=0;points=[[0,0.5],[1,0.5]];portConstraint=eastwest;whiteSpace=wrap;html=1;" vertex="1" parent="ptR34I22DVHRgY58OOjF-94">
          <mxGeometry y="104" width="140" height="26" as="geometry" />
        </mxCell>
        <mxCell id="ptR34I22DVHRgY58OOjF-99" value="+ phone: string" style="text;strokeColor=none;fillColor=none;align=left;verticalAlign=top;spacingLeft=4;spacingRight=4;overflow=hidden;rotatable=0;points=[[0,0.5],[1,0.5]];portConstraint=eastwest;whiteSpace=wrap;html=1;" vertex="1" parent="ptR34I22DVHRgY58OOjF-94">
          <mxGeometry y="130" width="140" height="26" as="geometry" />
        </mxCell>
      </root>
    </mxGraphModel>
  </diagram>
</mxfile>
